<svg width="52" height="46" viewBox="0 0 52 46" fill="none" xmlns="http://www.w3.org/2000/svg">
<g id="Group 649">
<g id="Group 648">
<g id="Vector">
<path d="M35.1675 32.3094C29.8241 32.3094 25.5369 28.0222 25.5369 22.6787H0C7.51815 22.6787 11.4947 34.2977 20.939 40.8838C31.9366 40.7596 39.3305 35.1054 41.0702 30.5075L40.946 30.3833C39.3305 31.5638 37.3422 32.3094 35.1675 32.3094Z" fill="url(#paint0_linear_54_259)"/>
<path d="M35.1675 32.3094C29.8241 32.3094 25.5369 28.0222 25.5369 22.6787H0C7.51815 22.6787 11.4947 34.2977 20.939 40.8838C31.9366 40.7596 39.3305 35.1054 41.0702 30.5075L40.946 30.3833C39.3305 31.5638 37.3422 32.3094 35.1675 32.3094Z" fill="url(#paint1_linear_54_259)"/>
</g>
<g id="Vector_2">
<path d="M20.9395 40.8837C24.3568 43.3069 28.5197 45.0467 33.8632 45.2952C34.236 45.2952 34.6088 45.3573 34.9816 45.3573C35.0438 45.3573 35.1059 45.3573 35.168 45.3573C35.168 45.3573 35.168 45.3573 35.2302 45.3573C35.3544 45.3573 35.4787 45.3573 35.603 45.3573C35.7894 45.3573 36.0379 45.3573 36.2243 45.3573C36.535 45.3573 36.7835 45.2952 37.0942 45.2952C37.1563 45.2952 37.1563 45.2952 37.2184 45.2952C42.624 44.7981 47.4704 42.4371 51.1363 38.8955L41.0707 30.4453C39.2688 35.1053 31.9371 40.7595 20.9395 40.8837Z" fill="url(#paint2_linear_54_259)"/>
<path d="M20.9395 40.8837C24.3568 43.3069 28.5197 45.0467 33.8632 45.2952C34.236 45.2952 34.6088 45.3573 34.9816 45.3573C35.0438 45.3573 35.1059 45.3573 35.168 45.3573C35.168 45.3573 35.168 45.3573 35.2302 45.3573C35.3544 45.3573 35.4787 45.3573 35.603 45.3573C35.7894 45.3573 36.0379 45.3573 36.2243 45.3573C36.535 45.3573 36.7835 45.2952 37.0942 45.2952C37.1563 45.2952 37.1563 45.2952 37.2184 45.2952C42.624 44.7981 47.4704 42.4371 51.1363 38.8955L41.0707 30.4453C39.2688 35.1053 31.9371 40.7595 20.9395 40.8837Z" fill="url(#paint3_linear_54_259)"/>
</g>
<g id="Vector_3">
<path d="M35.1675 12.986C29.8241 12.986 25.5369 17.2733 25.5369 22.6167H0C7.51815 22.6167 11.4947 10.9978 20.939 4.41162C31.9366 4.53589 39.3305 10.19 41.0702 14.7879L40.946 14.9122C39.3305 13.7316 37.3422 12.986 35.1675 12.986Z" fill="url(#paint4_linear_54_259)"/>
<path d="M35.1675 12.986C29.8241 12.986 25.5369 17.2733 25.5369 22.6167H0C7.51815 22.6167 11.4947 10.9978 20.939 4.41162C31.9366 4.53589 39.3305 10.19 41.0702 14.7879L40.946 14.9122C39.3305 13.7316 37.3422 12.986 35.1675 12.986Z" fill="url(#paint5_linear_54_259)"/>
</g>
<g id="Vector_4">
<path d="M20.9395 4.41148C24.3568 1.98827 28.5197 0.248534 33.8632 0C34.236 0 34.6088 0 34.9816 0C35.0438 0 35.1059 0 35.168 0C35.168 0 35.168 0 35.2302 0C35.3544 0 35.4787 0 35.603 0C35.7894 0 36.0379 0 36.2243 0C36.535 0 36.7835 0.0621335 37.0942 0.0621335C37.1563 0.0621335 37.1563 0.0621335 37.2184 0.0621335C42.624 0.559201 47.4704 2.92027 51.1363 6.46188L41.0707 14.8499C39.2688 10.1899 31.9371 4.53574 20.9395 4.41148Z" fill="url(#paint6_linear_54_259)"/>
<path d="M20.9395 4.41148C24.3568 1.98827 28.5197 0.248534 33.8632 0C34.236 0 34.6088 0 34.9816 0C35.0438 0 35.1059 0 35.168 0C35.168 0 35.168 0 35.2302 0C35.3544 0 35.4787 0 35.603 0C35.7894 0 36.0379 0 36.2243 0C36.535 0 36.7835 0.0621335 37.0942 0.0621335C37.1563 0.0621335 37.1563 0.0621335 37.2184 0.0621335C42.624 0.559201 47.4704 2.92027 51.1363 6.46188L41.0707 14.8499C39.2688 10.1899 31.9371 4.53574 20.9395 4.41148Z" fill="url(#paint7_linear_54_259)"/>
</g>
</g>
</g>
<defs>
<linearGradient id="paint0_linear_54_259" x1="20.5336" y1="40.8645" x2="20.5336" y2="22.6467" gradientUnits="userSpaceOnUse">
<stop stop-color="#C385FF"/>
<stop offset="1" stop-color="#8D55E5"/>
</linearGradient>
<linearGradient id="paint1_linear_54_259" x1="0.0110924" y1="31.783" x2="41.0727" y2="31.783" gradientUnits="userSpaceOnUse">
<stop stop-color="#FF691E"/>
<stop offset="1" stop-color="#BC5154"/>
</linearGradient>
<linearGradient id="paint2_linear_54_259" x1="20.919" y1="37.8757" x2="51.0838" y2="37.8757" gradientUnits="userSpaceOnUse">
<stop stop-color="#CC44B9"/>
<stop offset="0.2172" stop-color="#DE56D0"/>
<stop offset="0.4992" stop-color="#F068E7"/>
<stop offset="0.7661" stop-color="#FB72F4"/>
<stop offset="1" stop-color="#FF76F9"/>
</linearGradient>
<linearGradient id="paint3_linear_54_259" x1="20.9476" y1="37.9028" x2="51.1382" y2="37.9028" gradientUnits="userSpaceOnUse">
<stop stop-color="#FF9966"/>
<stop offset="1" stop-color="#FF5E62"/>
</linearGradient>
<linearGradient id="paint4_linear_54_259" x1="0" y1="13.538" x2="41.0671" y2="13.538" gradientUnits="userSpaceOnUse">
<stop stop-color="#C385FF"/>
<stop offset="1" stop-color="#8D55E5"/>
</linearGradient>
<linearGradient id="paint5_linear_54_259" x1="0.0110924" y1="13.516" x2="41.0727" y2="13.516" gradientUnits="userSpaceOnUse">
<stop stop-color="#FF691E"/>
<stop offset="1" stop-color="#BC5154"/>
</linearGradient>
<linearGradient id="paint6_linear_54_259" x1="20.919" y1="7.41774" x2="51.0838" y2="7.41774" gradientUnits="userSpaceOnUse">
<stop stop-color="#CC44B9"/>
<stop offset="0.2172" stop-color="#DE56D0"/>
<stop offset="0.4992" stop-color="#F068E7"/>
<stop offset="0.7661" stop-color="#FB72F4"/>
<stop offset="1" stop-color="#FF76F9"/>
</linearGradient>
<linearGradient id="paint7_linear_54_259" x1="20.9476" y1="7.4264" x2="51.1382" y2="7.4264" gradientUnits="userSpaceOnUse">
<stop stop-color="#FF9966"/>
<stop offset="1" stop-color="#FF5E62"/>
</linearGradient>
</defs>
</svg>
