<svg width="1053" height="593" viewBox="0 0 1053 593" fill="none" xmlns="http://www.w3.org/2000/svg">
    <g clip-path="url(#clip0_303_2)">
        <path d="M708.601 452.436C612.649 501.545 496.263 463.962 447.154 368.01L-10.7715 603.945C124.231 534.85 301.785 705.703 531.904 737.172C728.244 633.868 809.051 464.384 798.034 365.832L794.661 364.743C776.502 400.788 747.651 432.45 708.601 452.436Z"
              fill="url(#paint0_linear_303_2)"/>
        <path d="M708.601 452.436C612.649 501.545 496.263 463.962 447.154 368.01L-10.7715 603.945C124.231 534.85 301.785 705.703 531.904 737.172C728.244 633.868 809.051 464.384 798.034 365.832L794.661 364.743C776.502 400.788 747.651 432.45 708.601 452.436Z"
              fill="url(#paint1_linear_303_2)"/>
        <path d="M531.91 737.167C615.545 749.273 706.287 742.254 804.523 697.608C811.217 694.182 818.483 691.871 825.177 688.445C826.293 687.874 827.408 687.303 828.524 686.732C828.524 686.732 828.524 686.732 829.64 686.161C831.871 685.019 834.103 683.877 836.334 682.735C839.681 681.022 844.144 678.738 847.491 677.025C853.07 674.169 856.962 670.77 862.541 667.914C863.656 667.343 863.656 667.343 864.772 666.772C957.271 608.167 1022.6 521.229 1055.88 423.942L797.47 364.711C807.941 464.95 728.25 633.863 531.91 737.167Z"
              fill="url(#paint2_linear_303_2)"/>
        <path d="M531.91 737.167C615.545 749.273 706.287 742.254 804.523 697.608C811.217 694.182 818.483 691.871 825.177 688.445C826.293 687.874 827.408 687.303 828.524 686.732C828.524 686.732 828.524 686.732 829.64 686.161C831.871 685.019 834.103 683.877 836.334 682.735C839.681 681.022 844.144 678.738 847.491 677.025C853.07 674.169 856.962 670.77 862.541 667.914C863.656 667.343 863.656 667.343 864.772 666.772C957.271 608.167 1022.6 521.229 1055.88 423.942L797.47 364.711C807.941 464.95 728.25 633.863 531.91 737.167Z"
              fill="url(#paint3_linear_303_2)"/>
        <path d="M532.027 107.436C436.075 156.545 398.492 272.931 447.601 368.883L-10.7716 603.945C124.231 534.85 88.6651 289.297 197.725 84.2334C396.349 -14.608 581.084 18.9695 654.581 85.5438L653.491 88.9173C613.633 82.5655 571.078 87.45 532.027 107.436Z"
              fill="url(#paint4_linear_303_2)"/>
        <path d="M532.027 107.436C436.075 156.545 398.492 272.931 447.601 368.883L-10.7716 603.945C124.231 534.85 88.6651 289.297 197.725 84.2334C396.349 -14.608 581.084 18.9695 654.581 85.5438L653.491 88.9173C613.633 82.5655 571.078 87.45 532.027 107.436Z"
              fill="url(#paint5_linear_303_2)"/>
        <path d="M197.732 84.2293C236.826 9.30938 295.59 -60.19 389.258 -113.762C395.952 -117.188 402.647 -120.614 409.341 -124.04C410.457 -124.611 411.573 -125.182 412.688 -125.753C412.688 -125.753 412.688 -125.753 413.804 -126.324C416.035 -127.467 418.267 -128.609 420.498 -129.751C423.845 -131.464 428.308 -133.748 431.655 -135.461C437.234 -138.316 442.268 -139.485 447.847 -142.34C448.962 -142.911 448.962 -142.911 450.078 -143.482C551.714 -184.236 660.439 -186.379 758.816 -156.474L655.158 86.6554C579.975 19.5364 396.356 -14.6122 197.732 84.2293Z"
              fill="url(#paint6_linear_303_2)"/>
        <path d="M197.732 84.2293C236.826 9.30938 295.59 -60.19 389.258 -113.762C395.952 -117.188 402.647 -120.614 409.341 -124.04C410.457 -124.611 411.573 -125.182 412.688 -125.753C412.688 -125.753 412.688 -125.753 413.804 -126.324C416.035 -127.467 418.267 -128.609 420.498 -129.751C423.845 -131.464 428.308 -133.748 431.655 -135.461C437.234 -138.316 442.268 -139.485 447.847 -142.34C448.962 -142.911 448.962 -142.911 450.078 -143.482C551.714 -184.236 660.439 -186.379 758.816 -156.474L655.158 86.6554C579.975 19.5364 396.356 -14.6122 197.732 84.2293Z"
              fill="url(#paint7_linear_303_2)"/>
    </g>
    <defs>
        <linearGradient id="paint0_linear_303_2" x1="524.446" y1="740.551" x2="357.017" y2="413.418"
                        gradientUnits="userSpaceOnUse">
            <stop stop-color="#C385FF"/>
            <stop offset="1" stop-color="#8D55E5"/>
        </linearGradient>
        <linearGradient id="paint1_linear_303_2" x1="72.4653" y1="766.087" x2="809.802" y2="388.713"
                        gradientUnits="userSpaceOnUse">
            <stop stop-color="#FF691E"/>
            <stop offset="1" stop-color="#BC5154"/>
        </linearGradient>
        <linearGradient id="paint2_linear_303_2" x1="503.898" y1="683.339" x2="1045.56" y2="406.113"
                        gradientUnits="userSpaceOnUse">
            <stop stop-color="#CC44B9"/>
            <stop offset="0.2172" stop-color="#DE56D0"/>
            <stop offset="0.4992" stop-color="#F068E7"/>
            <stop offset="0.7661" stop-color="#FB72F4"/>
            <stop offset="1" stop-color="#FF76F9"/>
        </linearGradient>
        <linearGradient id="paint3_linear_303_2" x1="504.66" y1="683.564" x2="1046.79" y2="406.099"
                        gradientUnits="userSpaceOnUse">
            <stop stop-color="#FF9966"/>
            <stop offset="1" stop-color="#FF5E62"/>
        </linearGradient>
        <linearGradient id="paint4_linear_303_2" x1="-94.3975" y1="440.552" x2="643.037" y2="63.1275"
                        gradientUnits="userSpaceOnUse">
            <stop stop-color="#C385FF"/>
            <stop offset="1" stop-color="#8D55E5"/>
        </linearGradient>
        <linearGradient id="paint5_linear_303_2" x1="-94.4007" y1="440.054" x2="642.936" y2="62.6804"
                        gradientUnits="userSpaceOnUse">
            <stop stop-color="#FF691E"/>
            <stop offset="1" stop-color="#BC5154"/>
        </linearGradient>
        <linearGradient id="paint6_linear_303_2" x1="224.994" y1="138.4" x2="766.657" y2="-138.827"
                        gradientUnits="userSpaceOnUse">
            <stop stop-color="#CC44B9"/>
            <stop offset="0.2172" stop-color="#DE56D0"/>
            <stop offset="0.4992" stop-color="#F068E7"/>
            <stop offset="0.7661" stop-color="#FB72F4"/>
            <stop offset="1" stop-color="#FF76F9"/>
        </linearGradient>
        <linearGradient id="paint7_linear_303_2" x1="225.587" y1="138.293" x2="767.713" y2="-139.171"
                        gradientUnits="userSpaceOnUse">
            <stop stop-color="#FF9966"/>
            <stop offset="1" stop-color="#FF5E62"/>
        </linearGradient>
        <clipPath id="clip0_303_2">
            <rect width="1053" height="593" fill="white"/>
        </clipPath>
    </defs>
</svg>
