<svg width="169" height="46" viewBox="0 0 169 46" fill="none" xmlns="http://www.w3.org/2000/svg">
    <path d="M65.501 21.3575L62.6379 17.6023C62.4996 17.4225 62.4304 17.2012 62.4304 16.9384C62.4304 16.7033 62.4996 16.4958 62.6379 16.316L65.1275 12.9965C65.4318 12.5677 65.8053 12.3533 66.2479 12.3533C66.5937 12.3533 66.8703 12.4571 67.0778 12.6646C67.2852 12.872 67.389 13.1348 67.389 13.4529C67.389 13.7296 67.2991 13.9785 67.1192 14.1998L65.0031 16.7725L67.5549 20.0505C67.7486 20.3271 67.8454 20.5899 67.8454 20.8389C67.8454 21.1708 67.7278 21.4474 67.4927 21.6687C67.2714 21.89 66.9948 22.0007 66.6628 22.0007C66.1925 22.0007 65.8053 21.7863 65.501 21.3575ZM62.1192 8.47367V20.8389C62.1192 21.157 62.0017 21.4336 61.7665 21.6687C61.5452 21.89 61.2686 22.0007 60.9366 22.0007C60.5909 22.0007 60.3004 21.89 60.0653 21.6687C59.844 21.4336 59.7333 21.157 59.7333 20.8389V8.47367C59.7333 8.15554 59.844 7.88583 60.0653 7.66453C60.3004 7.4294 60.5909 7.31183 60.9366 7.31183C61.2686 7.31183 61.5452 7.4294 61.7665 7.66453C62.0017 7.88583 62.1192 8.15554 62.1192 8.47367ZM76.0434 18.7019V13.5152C76.0434 13.1971 76.154 12.9273 76.3753 12.706C76.6104 12.4709 76.9009 12.3533 77.2467 12.3533C77.5786 12.3533 77.8553 12.4709 78.0766 12.706C78.3117 12.9273 78.4293 13.1971 78.4293 13.5152V20.8389C78.4293 21.157 78.3117 21.4336 78.0766 21.6687C77.8553 21.89 77.5717 22.0007 77.2259 22.0007C76.8802 22.0007 76.5966 21.8831 76.3753 21.648C76.154 21.4129 76.0434 21.0947 76.0434 20.6936C75.2965 21.6065 74.3006 22.0629 73.0558 22.0629C72.0599 22.0629 71.2646 21.731 70.6699 21.0671C70.0752 20.4032 69.7778 19.4488 69.7778 18.204V13.5152C69.7778 13.1971 69.8884 12.9273 70.1097 12.706C70.3449 12.4709 70.6353 12.3533 70.9811 12.3533C71.3131 12.3533 71.5897 12.4709 71.811 12.706C72.0461 12.9273 72.1637 13.1971 72.1637 13.5152V17.7061C72.1637 19.1307 72.7584 19.843 73.9479 19.843C74.764 19.843 75.4624 19.4626 76.0434 18.7019ZM87.8309 21.8347H81.7728C81.2472 21.8347 80.8945 21.6134 80.7147 21.1708C80.5349 20.7282 80.6801 20.2303 81.1504 19.677L85.611 14.7393H82.0425C81.7382 14.7393 81.4754 14.6286 81.2541 14.4073C81.0466 14.186 80.9429 13.9232 80.9429 13.6189C80.9429 13.3146 81.0466 13.0518 81.2541 12.8305C81.4754 12.6092 81.7382 12.4986 82.0425 12.4986H87.8516C88.1974 12.4986 88.474 12.6023 88.6815 12.8098C88.889 13.0173 88.9927 13.28 88.9927 13.5982C88.9927 13.944 88.8267 14.2966 88.4948 14.6563L84.0342 19.6148H87.8309C88.1352 19.6148 88.3911 19.7254 88.5985 19.9467C88.8198 20.1542 88.9305 20.4101 88.9305 20.7144C88.9305 21.0187 88.8198 21.2815 88.5985 21.5028C88.3911 21.7241 88.1352 21.8347 87.8309 21.8347ZM96.8386 16.2953V16.2538C96.8386 15.659 96.645 15.1819 96.2577 14.8222C95.8704 14.4488 95.3518 14.2621 94.7017 14.2621C93.3462 14.2621 92.5302 14.9398 92.2536 16.2953H96.8386ZM98.2909 17.8928H92.3365C92.4334 18.5705 92.7307 19.103 93.2287 19.4903C93.7404 19.8776 94.3767 20.0712 95.1374 20.0712C95.7598 20.0712 96.3407 19.9537 96.8801 19.7185C97.0876 19.6217 97.2674 19.5733 97.4196 19.5733C97.7238 19.5733 97.9728 19.7185 98.1664 20.009C98.2633 20.1611 98.3117 20.3133 98.3117 20.4654C98.3117 20.8112 98.1526 21.0809 97.8345 21.2745C96.9355 21.8001 95.9534 22.0629 94.8884 22.0629C93.3946 22.0629 92.1844 21.6134 91.2577 20.7144C90.331 19.8292 89.8677 18.6466 89.8677 17.1666C89.8677 15.7697 90.3172 14.6009 91.2162 13.6604C92.1014 12.7337 93.2978 12.2704 94.8054 12.2704C96.0503 12.2704 97.0945 12.6715 97.9382 13.4737C98.7958 14.2897 99.2245 15.334 99.2245 16.6065V17.0422C99.1554 17.6092 98.8442 17.8928 98.2909 17.8928ZM103.694 13.5152C104.427 12.7268 105.402 12.3326 106.62 12.3326C107.297 12.3326 107.871 12.4709 108.342 12.7475C108.826 13.0103 109.158 13.37 109.337 13.8264C110.098 12.8305 111.149 12.3326 112.491 12.3326C114.483 12.3326 115.478 13.4668 115.478 15.7351V20.8389C115.478 21.157 115.361 21.4336 115.126 21.6687C114.904 21.89 114.628 22.0007 114.296 22.0007C113.95 22.0007 113.66 21.89 113.425 21.6687C113.203 21.4336 113.093 21.157 113.093 20.8389V16.3575C113.093 15.168 112.56 14.5733 111.495 14.5733C110.582 14.5733 109.939 14.9329 109.566 15.6521C109.566 15.6798 109.566 15.7904 109.566 15.9841C109.579 16.1639 109.586 16.2814 109.586 16.3368V20.8389C109.586 21.157 109.469 21.4336 109.234 21.6687C109.012 21.89 108.736 22.0007 108.404 22.0007C108.058 22.0007 107.768 21.89 107.532 21.6687C107.311 21.4336 107.2 21.157 107.2 20.8389V16.1915C107.2 15.6936 107.062 15.2994 106.786 15.009C106.523 14.7185 106.142 14.5733 105.644 14.5733C104.773 14.5733 104.123 14.9052 103.694 15.5691V20.8389C103.694 21.157 103.577 21.4336 103.342 21.6687C103.12 21.89 102.844 22.0007 102.512 22.0007C102.166 22.0007 101.875 21.89 101.64 21.6687C101.419 21.4336 101.308 21.157 101.308 20.8389V13.6604C101.308 13.2593 101.419 12.9412 101.64 12.706C101.862 12.4709 102.159 12.3533 102.532 12.3533C102.864 12.3533 103.141 12.464 103.362 12.6853C103.584 12.8928 103.694 13.1694 103.694 13.5152ZM120.288 8.47367V13.0795C120.965 12.5401 121.788 12.2704 122.757 12.2704C124.112 12.2704 125.198 12.706 126.014 13.5774C126.802 14.4626 127.196 15.6106 127.196 17.0214C127.196 18.5567 126.719 19.7808 125.765 20.6936C124.783 21.6065 123.483 22.0629 121.865 22.0629C120.869 22.0629 119.894 21.8831 118.939 21.5235C118.248 21.2469 117.902 20.749 117.902 20.0297V8.47367C117.902 8.15554 118.012 7.88583 118.234 7.66453C118.469 7.4294 118.759 7.31183 119.105 7.31183C119.437 7.31183 119.714 7.4294 119.935 7.66453C120.17 7.88583 120.288 8.15554 120.288 8.47367ZM120.288 15.4032V19.3658C120.8 19.6839 121.367 19.843 121.989 19.843C122.777 19.843 123.414 19.6079 123.898 19.1376C124.396 18.6535 124.645 18.0034 124.645 17.1874C124.645 16.3437 124.416 15.6867 123.96 15.2164C123.504 14.7462 122.916 14.511 122.196 14.511C121.436 14.511 120.8 14.8084 120.288 15.4032ZM128.666 19.0961C128.666 18.1279 128.978 17.381 129.6 16.8554C130.222 16.3299 131.045 16.0671 132.069 16.0671C132.913 16.0671 133.618 16.2676 134.185 16.6687V16.3783C134.185 15.6452 134.047 15.1127 133.77 14.7807C133.507 14.435 133.065 14.2621 132.442 14.2621C131.889 14.2621 131.405 14.3312 130.99 14.4695C130.783 14.5249 130.624 14.5525 130.513 14.5525C130.139 14.5525 129.87 14.3866 129.704 14.0546C129.648 13.944 129.621 13.8126 129.621 13.6604C129.621 13.2455 129.849 12.9481 130.305 12.7683C131.066 12.4363 131.861 12.2704 132.691 12.2704C133.991 12.2704 134.939 12.5885 135.534 13.2247C136.128 13.861 136.426 14.8361 136.426 16.15V20.9011C136.426 21.1916 136.322 21.4405 136.115 21.648C135.907 21.8555 135.658 21.9592 135.368 21.9592C135.063 21.9592 134.814 21.8555 134.621 21.648C134.441 21.4405 134.351 21.1708 134.351 20.8389C133.756 21.5858 132.837 21.9592 131.592 21.9592C130.707 21.9592 129.994 21.7033 129.455 21.1916C128.929 20.666 128.666 19.9675 128.666 19.0961ZM134.185 19.0961V18.1418C133.798 17.8375 133.252 17.6853 132.546 17.6853C132.104 17.6853 131.744 17.7891 131.467 17.9965C131.191 18.204 131.052 18.4875 131.052 18.8472C131.052 19.1791 131.177 19.4488 131.426 19.6563C131.675 19.8499 131.993 19.9467 132.38 19.9467C133.182 19.9467 133.784 19.6632 134.185 19.0961ZM140.573 13.2247L142.44 17.6023C142.468 17.6715 142.62 18.121 142.897 18.9509C142.98 18.4391 143.09 17.9827 143.229 17.5816L144.66 13.2455C144.84 12.6507 145.241 12.3533 145.863 12.3533C146.237 12.3533 146.534 12.464 146.756 12.6853C146.991 12.8928 147.108 13.1625 147.108 13.4944C147.108 13.6881 147.067 13.9025 146.984 14.1376L143.955 21.8347C143.318 23.4806 142.738 24.5871 142.212 25.1542C141.7 25.7075 141.078 25.9841 140.345 25.9841C139.874 25.9841 139.466 25.908 139.121 25.7559C138.678 25.5623 138.457 25.2234 138.457 24.7393C138.457 24.4488 138.54 24.2068 138.706 24.0131C138.886 23.8333 139.128 23.7434 139.432 23.7434C139.487 23.7434 139.598 23.7504 139.764 23.7642C139.944 23.778 140.054 23.7849 140.096 23.7849H140.22C140.704 23.7573 141.133 23.2732 141.507 22.3326L141.714 21.8347L138.187 14.2206C138.09 14.0131 138.042 13.8126 138.042 13.6189C138.042 13.2593 138.166 12.9619 138.415 12.7268C138.678 12.4778 139.024 12.3533 139.453 12.3533C139.937 12.3533 140.31 12.6438 140.573 13.2247ZM154.967 16.2953V16.2538C154.967 15.659 154.773 15.1819 154.386 14.8222C153.998 14.4488 153.48 14.2621 152.83 14.2621C151.474 14.2621 150.658 14.9398 150.382 16.2953H154.967ZM156.419 17.8928H150.465C150.561 18.5705 150.859 19.103 151.357 19.4903C151.868 19.8776 152.505 20.0712 153.265 20.0712C153.888 20.0712 154.469 19.9537 155.008 19.7185C155.216 19.6217 155.395 19.5733 155.548 19.5733C155.852 19.5733 156.101 19.7185 156.294 20.009C156.391 20.1611 156.44 20.3133 156.44 20.4654C156.44 20.8112 156.281 21.0809 155.962 21.2745C155.063 21.8001 154.081 22.0629 153.016 22.0629C151.523 22.0629 150.312 21.6134 149.386 20.7144C148.459 19.8292 147.996 18.6466 147.996 17.1666C147.996 15.7697 148.445 14.6009 149.344 13.6604C150.229 12.7337 151.426 12.2704 152.933 12.2704C154.178 12.2704 155.223 12.6715 156.066 13.4737C156.924 14.2897 157.353 15.334 157.353 16.6065V17.0422C157.283 17.6092 156.972 17.8928 156.419 17.8928ZM160.709 13.2247L162.119 16.5027C162.41 17.1528 162.645 17.8582 162.825 18.6189C163.019 17.8306 163.247 17.1113 163.51 16.4613L164.879 13.1002C165.086 12.6023 165.46 12.3533 165.999 12.3533C166.317 12.3533 166.58 12.464 166.788 12.6853C167.009 12.9066 167.119 13.1694 167.119 13.4737C167.119 13.6535 167.092 13.7987 167.037 13.9094L163.924 21.1501C163.689 21.7172 163.295 22.0007 162.742 22.0007C162.202 22.0007 161.794 21.7172 161.518 21.1501L158.344 14.1998C158.261 14.0062 158.219 13.8126 158.219 13.6189C158.219 13.2455 158.337 12.9412 158.572 12.706C158.821 12.4709 159.146 12.3533 159.547 12.3533C160.072 12.3533 160.46 12.6438 160.709 13.2247ZM65.6877 31.76C65.2313 31.594 64.7679 31.511 64.2977 31.511C63.6199 31.511 63.0183 31.7531 62.4927 32.2372C61.9671 32.7351 61.7043 33.3783 61.7043 34.1666C61.7043 34.955 61.9671 35.5982 62.4927 36.0961C63.0183 36.594 63.6545 36.843 64.4014 36.843C64.9961 36.843 65.5079 36.7185 65.9367 36.4696C66.1995 36.3036 66.4761 36.2206 66.7665 36.2206C67.0847 36.2206 67.3613 36.3658 67.5964 36.6563C67.7347 36.8361 67.8039 37.0436 67.8039 37.2787C67.8039 37.6521 67.6379 37.9633 67.306 38.2123C66.5314 38.7794 65.5217 39.0629 64.2769 39.0629C62.7416 39.0629 61.5037 38.6134 60.5632 37.7144C59.6227 36.8153 59.1524 35.6328 59.1524 34.1666C59.1524 32.7697 59.6088 31.6079 60.5217 30.6812C61.4346 29.7406 62.5895 29.2704 63.9865 29.2704C65.0791 29.2704 65.9574 29.4363 66.6213 29.7683C67.1192 30.0034 67.3682 30.3354 67.3682 30.7641C67.3682 30.9025 67.3198 31.0753 67.223 31.2828C67.0155 31.6839 66.6974 31.8845 66.2686 31.8845C66.0888 31.8845 65.8952 31.843 65.6877 31.76ZM69.9237 37.6729C68.9831 36.76 68.5129 35.5913 68.5129 34.1666C68.5129 32.7559 68.9831 31.5802 69.9237 30.6397C70.8642 29.7268 72.0883 29.2704 73.5959 29.2704C75.1311 29.2704 76.3621 29.7268 77.2888 30.6397C78.2155 31.5664 78.6789 32.742 78.6789 34.1666C78.6789 35.5913 78.2155 36.76 77.2888 37.6729C76.3621 38.5996 75.1311 39.0629 73.5959 39.0629C72.0744 39.0629 70.8504 38.5996 69.9237 37.6729ZM71.7909 32.2579C71.3068 32.7559 71.0647 33.3921 71.0647 34.1666C71.0647 34.9412 71.2999 35.5844 71.7701 36.0961C72.2542 36.594 72.8628 36.843 73.5959 36.843C74.3428 36.843 74.9513 36.594 75.4216 36.0961C75.9057 35.5982 76.1477 34.955 76.1477 34.1666C76.1477 33.3921 75.9057 32.7559 75.4216 32.2579C74.9375 31.76 74.3289 31.511 73.5959 31.511C72.8766 31.511 72.275 31.76 71.7909 32.2579ZM81.9678 29.3533C82.2997 29.3533 82.5763 29.4571 82.7976 29.6646C83.0189 29.872 83.1296 30.121 83.1296 30.4114C83.8073 29.6922 84.6994 29.3326 85.8059 29.3326C88.3647 29.3326 89.6441 30.6742 89.6441 33.3575V37.8389C89.6441 38.157 89.5266 38.4336 89.2914 38.6687C89.0701 38.89 88.7935 39.0007 88.4616 39.0007C88.1158 39.0007 87.8253 38.89 87.5902 38.6687C87.3689 38.4336 87.2582 38.157 87.2582 37.8389V33.7725C87.2582 32.3063 86.5598 31.5733 85.1628 31.5733C84.4021 31.5733 83.7243 31.8706 83.1296 32.4654V37.8389C83.1296 38.157 83.012 38.4336 82.7769 38.6687C82.5556 38.89 82.279 39.0007 81.947 39.0007C81.6012 39.0007 81.3108 38.89 81.0756 38.6687C80.8543 38.4336 80.7437 38.157 80.7437 37.8389V30.6604C80.7437 30.2593 80.8543 29.9412 81.0756 29.706C81.2969 29.4709 81.5943 29.3533 81.9678 29.3533ZM91.447 37.1957C91.447 36.9467 91.5162 36.7531 91.6545 36.6148C91.862 36.3658 92.1109 36.2413 92.4014 36.2413C92.6227 36.2413 92.8509 36.3174 93.086 36.4696C93.7361 36.8707 94.4553 37.0712 95.2437 37.0712C95.6172 37.0712 95.9145 36.9952 96.1358 36.843C96.3571 36.6909 96.4678 36.4765 96.4678 36.1999C96.4678 35.7711 95.88 35.3907 94.7043 35.0588C94.234 34.9343 93.8467 34.8167 93.5425 34.7061C93.252 34.5954 92.9201 34.4364 92.5466 34.2289C92.1732 34.0076 91.8896 33.724 91.696 33.3783C91.5162 33.0186 91.4263 32.5968 91.4263 32.1127C91.4263 31.2413 91.7444 30.5498 92.3806 30.038C93.0169 29.5262 93.8398 29.2704 94.8495 29.2704C95.9422 29.2704 96.8896 29.5055 97.6919 29.9758C98.0238 30.1832 98.1898 30.4529 98.1898 30.7849C98.1898 30.9509 98.1483 31.1099 98.0653 31.2621C97.8717 31.5802 97.595 31.7393 97.2354 31.7393C97.0556 31.7393 96.8689 31.6978 96.6753 31.6148C96.122 31.3796 95.5549 31.2621 94.974 31.2621C94.6421 31.2621 94.3654 31.3451 94.1441 31.511C93.9228 31.6632 93.8122 31.8499 93.8122 32.0712C93.8122 32.2372 93.8744 32.3893 93.9989 32.5276C94.1234 32.6521 94.3032 32.7697 94.5383 32.8803C94.7873 32.9772 95.0293 33.0601 95.2645 33.1293C95.5134 33.1985 95.8177 33.2884 96.1773 33.399C96.5369 33.4958 96.8343 33.5857 97.0694 33.6687C97.595 33.8624 98.0238 34.1666 98.3558 34.5816C98.6877 34.9965 98.8537 35.4945 98.8537 36.0754C98.8537 36.9882 98.5079 37.7144 97.8163 38.2538C97.1386 38.7932 96.2257 39.0629 95.0777 39.0629C93.7638 39.0629 92.6849 38.7102 91.8412 38.0048C91.5784 37.7835 91.447 37.5138 91.447 37.1957ZM106.921 35.7019V30.5152C106.921 30.1971 107.031 29.9273 107.253 29.706C107.488 29.4709 107.778 29.3533 108.124 29.3533C108.456 29.3533 108.733 29.4709 108.954 29.706C109.189 29.9273 109.307 30.1971 109.307 30.5152V37.8389C109.307 38.157 109.189 38.4336 108.954 38.6687C108.733 38.89 108.449 39.0007 108.103 39.0007C107.757 39.0007 107.474 38.8831 107.253 38.648C107.031 38.4129 106.921 38.0947 106.921 37.6936C106.174 38.6065 105.178 39.0629 103.933 39.0629C102.937 39.0629 102.142 38.731 101.547 38.0671C100.952 37.4032 100.655 36.4488 100.655 35.204V30.5152C100.655 30.1971 100.766 29.9273 100.987 29.706C101.222 29.4709 101.513 29.3533 101.858 29.3533C102.19 29.3533 102.467 29.4709 102.688 29.706C102.923 29.9273 103.041 30.1971 103.041 30.5152V34.7061C103.041 36.1307 103.636 36.843 104.825 36.843C105.641 36.843 106.34 36.4626 106.921 35.7019ZM114.351 25.4737V35.287C114.351 36.269 114.642 36.76 115.223 36.76H115.575C115.797 36.76 115.956 36.7808 116.053 36.8223C116.44 36.9606 116.634 37.2441 116.634 37.6729C116.634 38.5581 115.88 39.0007 114.372 39.0007C112.768 39.0007 111.965 38.0878 111.965 36.2621V25.4737C111.965 25.1555 112.076 24.8858 112.297 24.6645C112.533 24.4294 112.823 24.3118 113.169 24.3118C113.501 24.3118 113.777 24.4294 113.999 24.6645C114.234 24.8858 114.351 25.1555 114.351 25.4737ZM122.522 36.7185C122.813 36.7185 123.041 36.8153 123.207 37.009C123.387 37.1888 123.476 37.4101 123.476 37.6729C123.476 38.0878 123.262 38.4059 122.833 38.6272C122.28 38.9039 121.623 39.0422 120.862 39.0422C119.853 39.0422 119.113 38.7379 118.642 38.1293C118.186 37.5069 117.958 36.5595 117.958 35.287V28.067C117.958 27.7489 118.068 27.4792 118.29 27.2579C118.525 27.0228 118.815 26.9052 119.161 26.9052C119.493 26.9052 119.77 27.0228 119.991 27.2579C120.226 27.4792 120.344 27.7489 120.344 28.067V29.4986H122.19C122.508 29.4986 122.778 29.6092 122.999 29.8305C123.234 30.0518 123.352 30.3146 123.352 30.6189C123.352 30.9232 123.234 31.186 122.999 31.4073C122.778 31.6286 122.508 31.7393 122.19 31.7393H120.344V35.1418C120.344 36.2621 120.703 36.8223 121.423 36.8223C121.575 36.8223 121.782 36.8084 122.045 36.7808C122.322 36.7393 122.481 36.7185 122.522 36.7185ZM128.096 30.5152V37.8389C128.096 38.157 127.979 38.4336 127.744 38.6687C127.522 38.89 127.246 39.0007 126.914 39.0007C126.568 39.0007 126.278 38.89 126.042 38.6687C125.821 38.4336 125.71 38.157 125.71 37.8389V30.5152C125.71 30.1971 125.821 29.9273 126.042 29.706C126.278 29.4709 126.568 29.3533 126.914 29.3533C127.246 29.3533 127.522 29.4709 127.744 29.706C127.979 29.9273 128.096 30.1971 128.096 30.5152ZM126.955 24.7475C127.329 24.7475 127.647 24.8789 127.91 25.1417C128.186 25.4045 128.325 25.7365 128.325 26.1376C128.325 26.5802 128.186 26.9398 127.91 27.2164C127.647 27.493 127.329 27.6314 126.955 27.6314C126.527 27.6314 126.167 27.493 125.876 27.2164C125.6 26.9398 125.462 26.5802 125.462 26.1376C125.462 25.7226 125.6 25.3907 125.876 25.1417C126.167 24.8789 126.527 24.7475 126.955 24.7475ZM132.336 29.3533C132.668 29.3533 132.944 29.4571 133.166 29.6646C133.387 29.872 133.498 30.121 133.498 30.4114C134.175 29.6922 135.068 29.3326 136.174 29.3326C138.733 29.3326 140.012 30.6742 140.012 33.3575V37.8389C140.012 38.157 139.895 38.4336 139.66 38.6687C139.438 38.89 139.162 39.0007 138.83 39.0007C138.484 39.0007 138.193 38.89 137.958 38.6687C137.737 38.4336 137.626 38.157 137.626 37.8389V33.7725C137.626 32.3063 136.928 31.5733 135.531 31.5733C134.77 31.5733 134.092 31.8706 133.498 32.4654V37.8389C133.498 38.157 133.38 38.4336 133.145 38.6687C132.924 38.89 132.647 39.0007 132.315 39.0007C131.969 39.0007 131.679 38.89 131.444 38.6687C131.222 38.4336 131.112 38.157 131.112 37.8389V30.6604C131.112 30.2593 131.222 29.9412 131.444 29.706C131.665 29.4709 131.962 29.3533 132.336 29.3533ZM145.84 36.5733C145.84 36.7669 145.902 36.926 146.027 37.0505C147.521 37.0505 148.71 37.3133 149.595 37.8389C150.48 38.3645 150.923 39.1183 150.923 40.1003C150.923 41.0823 150.48 41.8361 149.595 42.3617C148.724 42.8873 147.548 43.1501 146.068 43.1501C144.575 43.1501 143.392 42.8873 142.521 42.3617C141.649 41.8499 141.213 41.0961 141.213 40.1003C141.213 39.3672 141.483 38.7586 142.023 38.2745C142.562 37.7766 143.302 37.4239 144.243 37.2165C144.132 37.0228 144.077 36.8084 144.077 36.5733C144.077 36.3105 144.146 36.0892 144.284 35.9094C143.592 35.6328 143.046 35.2178 142.645 34.6646C142.258 34.0975 142.064 33.4682 142.064 32.7766C142.064 31.8084 142.431 30.9785 143.164 30.287C143.883 29.6092 144.844 29.2704 146.048 29.2704C146.947 29.2704 147.742 29.4917 148.433 29.9343L150.321 29.5193C150.363 29.5055 150.439 29.4986 150.55 29.4986C150.771 29.4986 150.965 29.5677 151.131 29.706C151.31 29.8305 151.428 30.0034 151.483 30.2247C151.497 30.2524 151.504 30.3146 151.504 30.4114C151.504 30.6327 151.435 30.8333 151.297 31.0131C151.158 31.1929 150.978 31.3036 150.757 31.3451L149.782 31.5733C149.934 31.9882 150.01 32.3893 150.01 32.7766C150.01 33.7448 149.644 34.5608 148.911 35.2247C148.164 35.8886 147.182 36.2206 145.965 36.2206C145.882 36.3036 145.84 36.4212 145.84 36.5733ZM143.433 40.1003C143.433 40.4599 143.662 40.7365 144.118 40.9302C144.588 41.1376 145.238 41.2414 146.068 41.2414C147.811 41.2414 148.682 40.861 148.682 40.1003C148.682 39.7545 148.454 39.4779 147.998 39.2704C147.541 39.0629 146.898 38.9592 146.068 38.9592C145.252 38.9592 144.609 39.0629 144.139 39.2704C143.669 39.4779 143.433 39.7545 143.433 40.1003ZM144.782 31.6563C144.478 32.002 144.319 32.3824 144.305 32.7973C144.291 33.1985 144.45 33.5581 144.782 33.8762C145.114 34.1943 145.536 34.3326 146.048 34.2911C146.559 34.2911 146.974 34.1528 147.292 33.8762C147.624 33.5996 147.79 33.233 147.79 32.7766C147.79 32.3063 147.631 31.926 147.313 31.6355C146.995 31.3451 146.573 31.1998 146.048 31.1998C145.508 31.1998 145.086 31.352 144.782 31.6563Z"
          fill="black"/>
    <path d="M35.1675 32.3094C29.8241 32.3094 25.5369 28.0222 25.5369 22.6787H0C7.51815 22.6787 11.4947 34.2977 20.939 40.8838C31.9366 40.7596 39.3305 35.1054 41.0702 30.5075L40.946 30.3833C39.3305 31.5638 37.3422 32.3094 35.1675 32.3094Z"
          fill="url(#paint0_linear_0_267)"/>
    <path d="M35.1675 32.3094C29.8241 32.3094 25.5369 28.0222 25.5369 22.6787H0C7.51815 22.6787 11.4947 34.2977 20.939 40.8838C31.9366 40.7596 39.3305 35.1054 41.0702 30.5075L40.946 30.3833C39.3305 31.5638 37.3422 32.3094 35.1675 32.3094Z"
          fill="url(#paint1_linear_0_267)"/>
    <path d="M20.939 40.8837C24.3564 43.3069 28.5193 45.0467 33.8628 45.2952C34.2356 45.2952 34.6084 45.3573 34.9812 45.3573C35.0433 45.3573 35.1055 45.3573 35.1676 45.3573C35.1676 45.3573 35.1676 45.3573 35.2297 45.3573C35.354 45.3573 35.4783 45.3573 35.6025 45.3573C35.7889 45.3573 36.0375 45.3573 36.2239 45.3573C36.5345 45.3573 36.7831 45.2952 37.0937 45.2952C37.1559 45.2952 37.1559 45.2952 37.218 45.2952C42.6236 44.7981 47.47 42.4371 51.1359 38.8955L41.0703 30.4453C39.2684 35.1053 31.9367 40.7595 20.939 40.8837Z"
          fill="url(#paint2_linear_0_267)"/>
    <path d="M20.939 40.8837C24.3564 43.3069 28.5193 45.0467 33.8628 45.2952C34.2356 45.2952 34.6084 45.3573 34.9812 45.3573C35.0433 45.3573 35.1055 45.3573 35.1676 45.3573C35.1676 45.3573 35.1676 45.3573 35.2297 45.3573C35.354 45.3573 35.4783 45.3573 35.6025 45.3573C35.7889 45.3573 36.0375 45.3573 36.2239 45.3573C36.5345 45.3573 36.7831 45.2952 37.0937 45.2952C37.1559 45.2952 37.1559 45.2952 37.218 45.2952C42.6236 44.7981 47.47 42.4371 51.1359 38.8955L41.0703 30.4453C39.2684 35.1053 31.9367 40.7595 20.939 40.8837Z"
          fill="url(#paint3_linear_0_267)"/>
    <path d="M35.1675 12.986C29.8241 12.986 25.5369 17.2733 25.5369 22.6167H0C7.51815 22.6167 11.4947 10.9978 20.939 4.41162C31.9366 4.53589 39.3305 10.19 41.0702 14.7879L40.946 14.9122C39.3305 13.7316 37.3422 12.986 35.1675 12.986Z"
          fill="url(#paint4_linear_0_267)"/>
    <path d="M35.1675 12.986C29.8241 12.986 25.5369 17.2733 25.5369 22.6167H0C7.51815 22.6167 11.4947 10.9978 20.939 4.41162C31.9366 4.53589 39.3305 10.19 41.0702 14.7879L40.946 14.9122C39.3305 13.7316 37.3422 12.986 35.1675 12.986Z"
          fill="url(#paint5_linear_0_267)"/>
    <path d="M20.939 4.41148C24.3564 1.98827 28.5193 0.248534 33.8628 0C34.2356 0 34.6084 0 34.9812 0C35.0433 0 35.1055 0 35.1676 0C35.1676 0 35.1676 0 35.2297 0C35.354 0 35.4783 0 35.6025 0C35.7889 0 36.0375 0 36.2239 0C36.5345 0 36.7831 0.0621335 37.0937 0.0621335C37.1559 0.0621335 37.1559 0.0621335 37.218 0.0621335C42.6236 0.559201 47.47 2.92027 51.1359 6.46188L41.0703 14.8499C39.2684 10.1899 31.9367 4.53574 20.939 4.41148Z"
          fill="url(#paint6_linear_0_267)"/>
    <path d="M20.939 4.41148C24.3564 1.98827 28.5193 0.248534 33.8628 0C34.2356 0 34.6084 0 34.9812 0C35.0433 0 35.1055 0 35.1676 0C35.1676 0 35.1676 0 35.2297 0C35.354 0 35.4783 0 35.6025 0C35.7889 0 36.0375 0 36.2239 0C36.5345 0 36.7831 0.0621335 37.0937 0.0621335C37.1559 0.0621335 37.1559 0.0621335 37.218 0.0621335C42.6236 0.559201 47.47 2.92027 51.1359 6.46188L41.0703 14.8499C39.2684 10.1899 31.9367 4.53574 20.939 4.41148Z"
          fill="url(#paint7_linear_0_267)"/>
    <defs>
        <linearGradient id="paint0_linear_0_267" x1="20.5336" y1="40.8645" x2="20.5336" y2="22.6467"
                        gradientUnits="userSpaceOnUse">
            <stop stop-color="#C385FF"/>
            <stop offset="1" stop-color="#8D55E5"/>
        </linearGradient>
        <linearGradient id="paint1_linear_0_267" x1="0.0110924" y1="31.783" x2="41.0727" y2="31.783"
                        gradientUnits="userSpaceOnUse">
            <stop stop-color="#FF691E"/>
            <stop offset="1" stop-color="#BC5154"/>
        </linearGradient>
        <linearGradient id="paint2_linear_0_267" x1="20.9186" y1="37.8757" x2="51.0833" y2="37.8757"
                        gradientUnits="userSpaceOnUse">
            <stop stop-color="#CC44B9"/>
            <stop offset="0.2172" stop-color="#DE56D0"/>
            <stop offset="0.4992" stop-color="#F068E7"/>
            <stop offset="0.7661" stop-color="#FB72F4"/>
            <stop offset="1" stop-color="#FF76F9"/>
        </linearGradient>
        <linearGradient id="paint3_linear_0_267" x1="20.9472" y1="37.9028" x2="51.1377" y2="37.9028"
                        gradientUnits="userSpaceOnUse">
            <stop stop-color="#FF9966"/>
            <stop offset="1" stop-color="#FF5E62"/>
        </linearGradient>
        <linearGradient id="paint4_linear_0_267" x1="0" y1="13.538" x2="41.0671" y2="13.538"
                        gradientUnits="userSpaceOnUse">
            <stop stop-color="#C385FF"/>
            <stop offset="1" stop-color="#8D55E5"/>
        </linearGradient>
        <linearGradient id="paint5_linear_0_267" x1="0.0110924" y1="13.516" x2="41.0727" y2="13.516"
                        gradientUnits="userSpaceOnUse">
            <stop stop-color="#FF691E"/>
            <stop offset="1" stop-color="#BC5154"/>
        </linearGradient>
        <linearGradient id="paint6_linear_0_267" x1="20.9186" y1="7.41774" x2="51.0833" y2="7.41774"
                        gradientUnits="userSpaceOnUse">
            <stop stop-color="#CC44B9"/>
            <stop offset="0.2172" stop-color="#DE56D0"/>
            <stop offset="0.4992" stop-color="#F068E7"/>
            <stop offset="0.7661" stop-color="#FB72F4"/>
            <stop offset="1" stop-color="#FF76F9"/>
        </linearGradient>
        <linearGradient id="paint7_linear_0_267" x1="20.9472" y1="7.4264" x2="51.1377" y2="7.4264"
                        gradientUnits="userSpaceOnUse">
            <stop stop-color="#FF9966"/>
            <stop offset="1" stop-color="#FF5E62"/>
        </linearGradient>
    </defs>
</svg>
