<svg width="31" height="31" viewBox="0 0 31 31" fill="none" xmlns="http://www.w3.org/2000/svg">
    <g id="Vector">
        <path d="M15.1777 0.599609C6.91953 0.599609 0.236328 7.28223 0.236328 15.541C0.236328 23.738 6.85889 30.5996 15.1777 30.5996C23.4186 30.5996 30.2363 23.8078 30.2363 15.541C30.2363 7.21309 23.3658 0.599609 15.1777 0.599609ZM15.1777 28.8535C7.9083 28.8535 1.98242 22.8751 1.98242 15.541C1.98242 8.27158 7.9083 2.3457 15.1777 2.3457C22.5118 2.3457 28.4902 8.27158 28.4902 15.541C28.4902 22.8751 22.5118 28.8535 15.1777 28.8535Z"
              fill="#303030"/>
        <path d="M15.1777 5.87305C9.84682 5.87305 5.50977 10.2101 5.50977 15.541C5.50977 20.892 9.83791 25.3262 15.1777 25.3262C17.3383 25.3262 19.5239 24.6 21.1742 23.3339C21.5593 23.0384 21.632 22.4867 21.3365 22.1016C21.041 21.7164 20.4892 21.6438 20.1041 21.9393C18.7548 22.9746 16.9592 23.5801 15.1777 23.5801C10.8161 23.5801 7.26758 19.9673 7.26758 15.541C7.26758 11.1794 10.8161 7.61914 15.1777 7.61914C19.604 7.61914 23.2051 11.1794 23.2051 15.541V16.4199C23.2051 17.3892 22.4165 18.1777 21.4473 18.1777C20.478 18.1777 19.6895 17.3892 19.6895 16.4199C19.6895 15.9846 19.6895 12.4845 19.6895 12.0254C19.6895 11.54 19.2959 11.1465 18.8105 11.1465C18.3252 11.1465 17.9316 11.54 17.9316 12.0254V12.0811C17.1379 11.4759 16.1778 11.1465 15.1777 11.1465C12.7546 11.1465 10.7832 13.1179 10.7832 15.541C10.7832 17.9642 12.7546 19.9355 15.1777 19.9355C16.4916 19.9355 17.7007 19.3718 18.5606 18.4231C19.1963 19.3362 20.2528 19.9355 21.4473 19.9355C23.3858 19.9355 24.9629 18.3584 24.9629 16.4199V15.541C24.9629 10.1941 20.5221 5.87305 15.1777 5.87305ZM15.1777 18.1895C13.7238 18.1895 12.541 16.9949 12.541 15.541C12.541 14.0871 13.7238 12.8926 15.1777 12.8926C16.6705 12.8926 17.9316 14.1117 17.9316 15.541C17.9316 16.9703 16.6705 18.1895 15.1777 18.1895Z"
              fill="#303030"/>
    </g>
</svg>
