<svg width="31" height="31" viewBox="0 0 31 31" fill="none" xmlns="http://www.w3.org/2000/svg">
    <path d="M23.9584 19.1835C23.3434 18.544 22.6015 18.2021 21.8152 18.2021C21.0353 18.2021 20.2871 18.5377 19.6466 19.1772L17.6429 21.1717C17.478 21.0831 17.3132 21.0007 17.1546 20.9184C16.9264 20.8045 16.7108 20.6968 16.5269 20.5828C14.65 19.3925 12.9443 17.8412 11.3083 15.8341C10.5157 14.8337 9.98305 13.9915 9.59626 13.1368C10.1162 12.6619 10.5981 12.168 11.0674 11.6931C11.2449 11.5158 11.4224 11.3322 11.6 11.1549C12.9316 9.82527 12.9316 8.10305 11.6 6.77339L9.86892 5.04484C9.67235 4.84855 9.46944 4.64594 9.27921 4.44332C8.89876 4.05076 8.49928 3.64553 8.08712 3.26563C7.47205 2.65778 6.7365 2.33487 5.96291 2.33487C5.18932 2.33487 4.44109 2.65778 3.807 3.26563C3.80065 3.27196 3.80065 3.27196 3.79431 3.27829L1.6384 5.45007C0.826762 6.26052 0.363875 7.24827 0.26242 8.39431C0.110238 10.2432 0.655557 11.9654 1.07406 13.0924C2.10129 15.8594 3.63579 18.4237 5.92486 21.1717C8.70219 24.4832 12.0439 27.0982 15.8611 28.9407C17.3195 29.6309 19.2662 30.4476 21.4411 30.5869C21.5743 30.5933 21.7138 30.5996 21.8406 30.5996C23.3053 30.5996 24.5355 30.0741 25.4993 29.0293C25.5056 29.0167 25.5183 29.0103 25.5247 28.9977C25.8544 28.5988 26.2348 28.2379 26.6343 27.8516C26.907 27.592 27.186 27.3198 27.4586 27.0349C28.0864 26.3827 28.4161 25.6229 28.4161 24.8441C28.4161 24.059 28.08 23.3055 27.4396 22.6723L23.9584 19.1835ZM26.2285 25.8508C26.2222 25.8508 26.2222 25.8572 26.2285 25.8508C25.9812 26.1168 25.7276 26.3574 25.4549 26.6233C25.0427 27.0159 24.6242 27.4274 24.2311 27.8896C23.5907 28.5735 22.8361 28.8964 21.8469 28.8964C21.7518 28.8964 21.6504 28.8964 21.5552 28.89C19.672 28.7697 17.9219 28.0353 16.6093 27.4084C13.0204 25.6735 9.86892 23.2105 7.25012 20.089C5.08786 17.4866 3.64213 15.0806 2.68465 12.4973C2.09495 10.9207 1.87936 9.69231 1.97447 8.53361C2.03788 7.7928 2.32322 7.17862 2.84952 6.65309L5.01177 4.49398C5.32248 4.20272 5.6522 4.04443 5.97559 4.04443C6.37507 4.04443 6.69846 4.28503 6.90137 4.48765C6.90771 4.49398 6.91405 4.50031 6.92039 4.50664C7.30718 4.86755 7.67496 5.24112 8.06175 5.64002C8.25832 5.84263 8.46123 6.04525 8.66414 6.25419L10.3952 7.98275C11.0674 8.65391 11.0674 9.27442 10.3952 9.94558C10.2113 10.1292 10.0338 10.3128 9.84989 10.4901C9.31726 11.0346 8.80998 11.5412 8.25832 12.035C8.24564 12.0477 8.23296 12.054 8.22662 12.0667C7.6813 12.6112 7.78275 13.1431 7.89689 13.504C7.90323 13.523 7.90957 13.542 7.91591 13.561C8.36612 14.65 9.00021 15.6758 9.96403 16.8978L9.97037 16.9041C11.7205 19.0569 13.5657 20.7348 15.6011 22.0201C15.8611 22.1848 16.1274 22.3177 16.381 22.4444C16.6093 22.5583 16.8249 22.666 17.0088 22.7799C17.0342 22.7926 17.0595 22.8116 17.0849 22.8243C17.3005 22.9319 17.5034 22.9826 17.7126 22.9826C18.2389 22.9826 18.5687 22.6533 18.6765 22.5457L20.8451 20.3802C21.0606 20.165 21.4031 19.9054 21.8025 19.9054C22.1957 19.9054 22.5191 20.1523 22.7156 20.3676C22.722 20.3739 22.722 20.3739 22.7283 20.3802L26.2222 23.869C26.8753 24.5148 26.8753 25.1797 26.2285 25.8508Z"
          fill="#303030"/>
    <path d="M16.4508 7.73581C18.1121 8.01441 19.6213 8.79954 20.826 10.0026C22.0308 11.2056 22.8107 12.7125 23.0961 14.3714C23.1658 14.7893 23.5273 15.0806 23.9394 15.0806C23.9902 15.0806 24.0345 15.0743 24.0853 15.0679C24.5545 14.9919 24.8652 14.5487 24.7891 14.0802C24.4467 12.073 23.4956 10.2432 22.0435 8.79321C20.5914 7.34325 18.7589 6.39349 16.7488 6.05158C16.2796 5.9756 15.8421 6.28585 15.7596 6.74807C15.6772 7.21028 15.9816 7.65983 16.4508 7.73581Z"
          fill="#303030"/>
    <path d="M30.2233 13.8332C29.6589 10.5281 28.0991 7.52053 25.7022 5.12715C23.3053 2.73376 20.2934 1.17616 16.9834 0.612641C16.5205 0.530329 16.083 0.846914 16.0006 1.30913C15.9245 1.77768 16.2352 2.21456 16.7044 2.29688C19.6593 2.79708 22.3542 4.19639 24.4974 6.33017C26.6407 8.47029 28.0357 11.1613 28.5366 14.1118C28.6063 14.5297 28.9678 14.821 29.3799 14.821C29.4307 14.821 29.475 14.8147 29.5258 14.8083C29.9887 14.7387 30.3057 14.2955 30.2233 13.8332Z"
          fill="#303030"/>
</svg>
